<?xml version="1.0" encoding="utf-8" ?>
<svg baseProfile="full" height="200mm" version="1.1" viewBox="0,0,200,200" width="200mm" xmlns="http://www.w3.org/2000/svg" xmlns:ev="http://www.w3.org/2001/xml-events" xmlns:xlink="http://www.w3.org/1999/xlink"><defs /><rect fill="#1a1a1a" height="200" width="200" x="0" y="0" /><rect fill="#1a1a1a" height="200" width="180" x="10" y="0" /><text alignment-baseline="middle" fill="#e1ed5e" style="dominant-baseline: central; font-size:9.0px; font-family:Arial;" text-anchor="middle" x="100.0" y="100.0">2020</text><line stroke="#e1ed5e" stroke-width="0.3" x1="100.0" x2="100.0" y1="15.0" y2="10.0" /><path d="M 100.0 14.0 a86.0,86.0 0 0,1 42.35913384403234,11.155469271406648" fill="none" id="id1" stroke="none" /><text fill="#e1ed5e" style="font-size:6.75px; font-family:Arial;" text-anchor="middle"><textPath startOffset="22.145653131862478" xlink:href="#id1">January</textPath></text><line stroke="#e1ed5e" stroke-width="0.3" x1="143.13028292997686" x2="145.6673583964461" y1="26.7553504044142" y2="22.446841604673864" /><path d="M 143.63769802327073 25.89364864446614 a86.0,86.0 0 0,1 29.32050498858742,28.57503671076993" fill="none" id="id2" stroke="none" /><text fill="#e1ed5e" style="font-size:6.75px; font-family:Arial;" text-anchor="middle"><textPath startOffset="20.669276256404974" xlink:href="#id2">February</textPath></text><line stroke="#e1ed5e" stroke-width="0.3" x1="172.87174338648825" x2="177.1583165268699" y1="56.24261187166439" y2="53.66864786411523" /><path d="M 173.72905801456457 55.72781907015455 a86.0,86.0 0 0,1 12.242430191666344,42.057860355516425" fill="none" id="id3" stroke="none" /><text fill="#e1ed5e" style="font-size:6.75px; font-family:Arial;" text-anchor="middle"><textPath startOffset="22.145653131862474" xlink:href="#id3">March</textPath></text><line stroke="#e1ed5e" stroke-width="0.3" x1="184.99686870605535" x2="189.99668451229388" y1="99.2704041080226" y2="99.22748670261217" /><path d="M 185.99683186730306 99.26182062694052 a86.0,86.0 0 0,1 -10.086455211305974,41.156179273409016" fill="none" id="id4" stroke="none" /><text fill="#e1ed5e" style="font-size:6.75px; font-family:Arial;" text-anchor="middle"><textPath startOffset="21.40746469413373" xlink:href="#id4">April</textPath></text><line stroke="#e1ed5e" stroke-width="0.3" x1="174.33088141563837" x2="178.70328620479359" y1="141.23008692659167" y2="143.65538615756765" /><path d="M 175.20536237346943 141.71514677278685 a86.0,86.0 0 0,1 -30.301960400862466,31.631185727798858" fill="none" id="id5" stroke="none" /><text fill="#e1ed5e" style="font-size:6.75px; font-family:Arial;" text-anchor="middle"><textPath startOffset="22.145653131862474" xlink:href="#id5">May</textPath></text><line stroke="#e1ed5e" stroke-width="0.3" x1="143.1302829299769" x2="145.66735839644613" y1="173.24464959558577" y2="177.55315839532614" /><path d="M 143.63769802327073 174.10635135553383 a86.0,86.0 0 0,1 -40.68552437913181,11.842963189579606" fill="none" id="id6" stroke="none" /><text fill="#e1ed5e" style="font-size:6.75px; font-family:Arial;" text-anchor="middle"><textPath startOffset="21.407464694133747" xlink:href="#id6">June</textPath></text><line stroke="#e1ed5e" stroke-width="0.3" x1="101.45913802915013" x2="101.54496967792366" y1="184.9874750549273" y2="189.98673829345242" /><path d="M 101.47630435890484 185.9873277026323 a86.0,86.0 0 0,1 -42.54439059252881,-10.42667462771756" fill="none" id="id7" stroke="none" /><text fill="#e1ed5e" style="font-size:6.75px; font-family:Arial;" text-anchor="middle"><textPath startOffset="22.145653131862474" xlink:href="#id7">July</textPath></text><line stroke="#e1ed5e" stroke-width="0.3" x1="58.13341422392154" x2="55.67067388415222" y1="173.97424548756322" y2="178.32567169271397" /><path d="M 57.64086615596768 174.84453072859336 a86.0,86.0 0 0,1 -31.369924170532247,-30.572349798747897" fill="none" id="id8" stroke="none" /><text fill="#e1ed5e" style="font-size:6.75px; font-family:Arial;" text-anchor="middle"><textPath startOffset="22.145653131862474" xlink:href="#id8">August</textPath></text><path d="M 85.60350026404147 115.28858382429668 l -24.336452190290643 25.844468872382787 a56.499288394358906,56.499288394358906 0 0,0 -0.7003961570515307,-0.6709636748533188 l 24.77652083320749 -25.422893067223885" fill="red" stroke="none" /><path d="M 85.08716467003676 114.78537596483092 l -25.3217479700276 25.105324074176245 a56.65765299521283,56.65765299521283 0 0,0 -0.6788482528291867,-0.6965581106697308 l 25.7489830240076 -24.666943271438775" fill="red" stroke="none" /><path d="M 84.58840730492382 114.26474011684316 l -26.75315532846912 24.762321170612996 a57.45413378186052,57.45413378186052 0 0,0 -0.6637383310294087,-0.7295646956430794 l 27.17429136034041 -24.29941889941224" fill="red" stroke="none" /><path d="M 84.3458050057657 113.99807769240083 l -27.204672124334916 24.326585565913216 a57.49488937766852,57.49488937766852 0 0,0 -0.6515784548004644,-0.7413766729557206 l 27.618261643093973 -23.855996615146196" fill="red" stroke="none" /><path d="M 83.4222238831116 112.89097897827486 l -30.767688173023963 23.92514042004164 a59.97515849398369,59.97515849398369 0 0,0 -0.6250211830605278,-0.8181727920757385 l 31.173861333438786 -23.39344671472503" fill="red" stroke="none" /><path d="M 82.78059297857968 112.02048342749411 l -29.19721165044519 20.381921301739776 a56.60758183464873,56.60758183464873 0 0,0 -0.549390769141323,-0.8015775509192422 l 29.542792156401838 -19.877709015750483" fill="red" stroke="none" /><line stroke="#e1ed5e" stroke-width="0.3" x1="26.387840678322732" x2="22.057713659400548" y1="142.50000000000003" y2="145.00000000000006" /><path d="M 25.521815274538298 143.00000000000003 a86.0,86.0 0 0,1 -11.493303480769221,-40.785679425670985" fill="none" id="id9" stroke="none" /><text fill="#e1ed5e" style="font-size:6.75px; font-family:Arial;" text-anchor="middle"><textPath startOffset="21.40746469413373" xlink:href="#id9">September</textPath></text><line stroke="#e1ed5e" stroke-width="0.3" x1="15.003131293944662" x2="10.003315487706104" y1="100.72959589197737" y2="100.7725132973878" /><path d="M 14.003168132696942 100.73817937305945 a86.0,86.0 0 0,1 10.791469493833604,-42.45332614584628" fill="none" id="id10" stroke="none" /><text fill="#e1ed5e" style="font-size:6.75px; font-family:Arial;" text-anchor="middle"><textPath startOffset="22.145653131862435" xlink:href="#id10">October</textPath></text><line stroke="#e1ed5e" stroke-width="0.3" x1="26.387840678322718" x2="22.05771365940052" y1="57.49999999999999" y2="54.99999999999999" /><path d="M 25.521815274538284 56.99999999999999 a86.0,86.0 0 0,1 29.574782752854787,-30.34633250058573" fill="none" id="id11" stroke="none" /><text fill="#e1ed5e" style="font-size:6.75px; font-family:Arial;" text-anchor="middle"><textPath startOffset="21.40746469413373" xlink:href="#id11">November</textPath></text><path d="M 82.98947788004972 87.6856937992154 l -51.03156635985086 -36.94291860235379 a84.0,84.0 0 0,0 0.855591921664725,-1.1607747629245466 l 50.389872418602316 37.8134996745472" fill="red" stroke="none" /><path d="M 83.42222388311158 87.10902102172516 l -47.61541273563589 -37.02603294247966 a81.31711735023936,81.31711735023936 0 0,0 0.8663509007003832,-1.0946060615839035 l 46.97279540429395 37.837958947978244" fill="red" stroke="none" /><path d="M 83.64595745247003 86.82634096563983 l -47.978467909619575 -38.648057530447176 a82.60848751455558,82.60848751455558 0 0,0 0.8990682180636955,-1.0967170395903159 l 47.30795287231725 39.46597685173598" fill="red" stroke="none" /><path d="M 85.08716467003674 85.21462403516908 l -43.34763733057338 -42.97714693006313 a82.04140251002718,82.04140251002718 0 0,0 1.0001553298302754,-0.9916070450438279 l 42.60349008061312 43.71493398533563" fill="red" stroke="none" /><path d="M 85.34317274990677 84.96080404539775 l -42.14024082275941 -43.239599436745536 a81.3776685211541,81.3776685211541 0 0,0 1.0088021977233164,-0.9664096853900105 l 41.39176613917079 43.95662125244111" fill="red" stroke="none" /><path d="M 85.60350026404147 84.71141617570332 l -40.85532003696401 -43.38693408186308 a80.59516108164055,80.59516108164055 0 0,0 1.0153847713504007,-0.9398249855474853 l 40.10450549429966 44.08187681354293" fill="red" stroke="none" /><path d="M 85.86807049272753 84.46653392183569 l -40.82542901868966 -44.874298054060716 a81.6664510285936,81.6664510285936 0 0,0 1.0450776917427562,-0.9345149162252081 l 40.04908630012351 45.56850850016933" fill="red" stroke="none" /><path d="M 86.96720088162412 83.53348406188908 l -9.870171914243816 -12.470639780569595 a36.9039979298745,36.9039979298745 0 0,0 0.5001195625735143,-0.3888959968032963 l 9.654642407035057 12.638236828993698" fill="red" stroke="none" /><path d="M 87.25179093698888 83.31218511350988 l -24.931852225518117 -32.63659488641145 a62.06999611851468,62.06999611851468 0 0,0 0.8522713266235672,-0.6395602922782807 l 24.367927909983795 33.05977420595374" fill="red" stroke="none" /><path d="M 87.54013794807813 83.09580414077388 l -36.25342447464077 -49.18473297161923 a82.1019536809419,82.1019536809419 0 0,0 1.1416823600110448,-0.8264899846149659 l 35.40376110425575 49.799823727607276" fill="red" stroke="none" /><path d="M 89.03521579738668 82.08984904055464 l -32.029175745910756 -52.3172514949401 a82.34299391900635,82.34299391900635 0 0,0 1.2118820070169165,-0.7277003250153893 l 31.1263609823364 52.85936582049141" fill="red" stroke="none" /><line stroke="#e1ed5e" stroke-width="0.3" x1="56.869717070023135" x2="54.33264160355391" y1="26.7553504044142" y2="22.446841604673864" /><path d="M 56.362301976729285 25.89364864446614 a86.0,86.0 0 0,1 42.16139366436587,-11.88097634709845" fill="none" id="id12" stroke="none" /><text fill="#e1ed5e" style="font-size:6.75px; font-family:Arial;" text-anchor="middle"><textPath startOffset="22.145653131862474" xlink:href="#id12">December</textPath></text><path d="M 92.93061703081487 80.22567764915836 l -19.979242066434068 -55.8854959010238 a80.3494630611981,80.3494630611981 0 0,0 1.3027870662676708,-0.4531769689162295 l 19.016949228121394 56.22023130250862" fill="red" stroke="none" /><path d="M 93.27111125876988 80.10723608172694 l -18.987099990594913 -56.1319873356235 a80.25630741363696,80.25630741363696 0 0,0 1.3088552595010516,-0.4302467209667997 l 18.0207219934461 56.44965497799233" fill="red" stroke="none" /></svg>