<?xml version="1.0" encoding="utf-8" ?>
<svg baseProfile="full" height="200mm" version="1.1" viewBox="0,0,200,200" width="200mm" xmlns="http://www.w3.org/2000/svg" xmlns:ev="http://www.w3.org/2001/xml-events" xmlns:xlink="http://www.w3.org/1999/xlink"><defs /><rect fill="#1a1a1a" height="200" width="200" x="0" y="0" /><rect fill="#1a1a1a" height="200" width="180" x="10" y="0" /><text alignment-baseline="middle" fill="#e1ed5e" style="dominant-baseline: central; font-size:9.0px; font-family:Arial;" text-anchor="middle" x="100.0" y="100.0">2021</text><line stroke="#e1ed5e" stroke-width="0.3" x1="100.0" x2="100.0" y1="15.0" y2="10.0" /><path d="M 100.0 14.0 a86.0,86.0 0 0,1 42.46469731375804,11.215312516191453" fill="none" id="id13" stroke="none" /><text fill="#e1ed5e" style="font-size:6.75px; font-family:Arial;" text-anchor="middle"><textPath startOffset="22.20632615414155" xlink:href="#id13">January</textPath></text><path d="M 103.95276090670814 79.375362276772 l 11.858282720124386 -61.87391316968404 a84.0,84.0 0 0,0 1.4177343621314986,0.2843841756911667 l -12.921583491723009 61.66062503791566" fill="red" stroke="none" /><path d="M 106.40334571778207 80.00007090966166 l 18.912596561474146 -59.07077437553607 a83.02453300124535,83.02453300124535 0 0,0 1.3573213502204202,0.44748750883462374 l -19.926600733936986 58.73647314244221" fill="red" stroke="none" /><path d="M 109.73455568895987 81.39251694778311 l 22.225821170783338 -42.48438284923345 a68.94694894146949,68.94694894146949 0 0,0 1.0468607712736744,0.5591967689299818 l -22.953826988585323 42.09550735380171" fill="red" stroke="none" /><path d="M 110.05341064243156 81.56283822128135 l 22.601602888036872 -41.44955614827085 a68.21120797011208,68.21120797011208 0 0,0 1.0260132120502865,0.5709752416650495 l -23.311740189159195 41.054365509045624" fill="red" stroke="none" /><line stroke="#e1ed5e" stroke-width="0.3" x1="143.23703022742887" x2="145.7803849466894" y1="26.81831364943548" y2="22.513508569990506" /><path d="M 143.74570117128098 25.957352633546492 a86.0,86.0 0 0,1 28.547481713284135,27.462654790039103" fill="none" id="id14" stroke="none" /><text fill="#e1ed5e" style="font-size:6.75px; font-family:Arial;" text-anchor="middle"><textPath startOffset="19.985693538727396" xlink:href="#id14">February</textPath></text><path d="M 110.68208982089419 81.91981866633111 l 24.13824165588196 -40.85565591862181 a68.4535491905355,68.4535491905355 0 0,0 1.0093245491155582,0.6081067474326622 l -24.837928271215155 40.434102561730526" fill="red" stroke="none" /><path d="M 110.99172775467656 82.1063720568725 l 24.363399551212513 -39.66160886887654 a67.5469489414695,67.5469489414695 0 0,0 0.9854805462549943,0.6171078276567183 l -25.04249924983977 39.23635669989688" fill="red" stroke="none" /><path d="M 115.4437574822437 85.77008943001954 l 34.1365379167502 -31.453477709851388 a67.41793275217933,67.41793275217933 0 0,0 0.7790185770874651,0.8602117699521634 l -34.6729001344537 30.861213152629674" fill="red" stroke="none" /><path d="M 115.9244219780498 86.31012108654704 l 35.21286983597905 -30.271737643865745 a67.43623910336238,67.43623910336238 0 0,0 0.7491504213885469,0.8867578047173907 l -35.72873087085471 29.66112088951925" fill="red" stroke="none" /><line stroke="#e1ed5e" stroke-width="0.3" x1="172.23445277983987" x2="176.4835382374775" y1="55.19839476539836" y2="52.563006222186495" /><path d="M 173.08426987136738 54.67131705675599 a86.0,86.0 0 0,1 12.851231095245387,41.99856678651699" fill="none" id="id15" stroke="none" /><text fill="#e1ed5e" style="font-size:6.75px; font-family:Arial;" text-anchor="middle"><textPath startOffset="22.20632615414155" xlink:href="#id15">March</textPath></text><path d="M 117.84615892207809 88.93136811851018 l 38.830397096705894 -24.083578609388557 a66.69265255292653,66.69265255292653 0 0,0 0.5966902754800396,0.9808019237450821 l -39.23920317047216 23.411608912436392" fill="red" stroke="none" /><path d="M 118.03404312379186 89.2402003453031 l 38.42022254874413 -22.922973759998104 a65.7389788293898,65.7389788293898 0 0,0 0.5714292664526226,0.9767578478857637 l -38.809111489667075 22.258236499758443" fill="red" stroke="none" /><path d="M 118.21658344932153 89.55222093294921 l 39.531271605653046 -22.672417861694246 a66.57148194271483,66.57148194271483 0 0,0 0.5615537778090814,0.9989415108679782 l -39.915683024754564 21.988592840891474" fill="red" stroke="none" /><path d="M 118.3937258080291 89.86733742301442 l 39.90422989535977 -21.98228358648488 a66.55840597758406,66.55840597758406 0 0,0 0.5441685350133572,1.0082616505022877 l -40.27670652959159 21.292140952650133" fill="red" stroke="none" /><path d="M 119.04729006885535 91.15688171328212 l 41.382985260017456 -19.212950104131476 a66.6255292652553,66.6255292652553 0 0,0 0.4739857001580886,1.0443646611129094 l -41.70757327713889 18.497763434176502" fill="red" stroke="none" /><path d="M 119.34039704204932 91.81776055985345 l 42.11373463004316 -17.81683487224273 a66.72752179327523,66.72752179327523 0 0,0 0.43842623310955314,1.0616838991316506 l -42.41418255003891 17.089276402657777" fill="red" stroke="none" /><path d="M 119.47837535516314 92.15188598940014 l 48.90212293400855 -19.703359707807344 a73.72229140722291,73.72229140722291 0 0,0 0.4641220210255124,1.1811399193011005 l -49.234038504915766 18.85867078361046" fill="red" stroke="none" /><path d="M 119.97218684219823 93.5106431181261 l 45.420351023239085 -14.757966657262822 a68.75778331257783,68.75778331257783 0 0,0 0.35604913730937054,1.1287730644714067 l -45.66765564431666 13.973943426364997" fill="red" stroke="none" /><path d="M 120.08093135843002 93.85539295169968 l 44.676529559419485 -13.67066664012884 a67.72129514321296,67.72129514321296 0 0,0 0.33149284669905754,1.117629085147741 l -44.905228303230246 12.899608168234568" fill="red" stroke="none" /><path d="M 120.18372546131832 94.20196356495316 l 44.1729503433634 -12.689251844273134 a66.95940224159402,66.95940224159402 0 0,0 0.30869314152164873,1.1105334728843281 l -44.384830255451405 11.927007067969853" fill="red" stroke="none" /><path d="M 120.28053869075195 94.5502522615342 l 43.242418839787206 -11.620020447749923 a65.77646326276462,65.77646326276462 0 0,0 0.2844163876598717,1.0959723623998128 l -43.43603155931738 10.873951659801259" fill="red" stroke="none" /><path d="M 120.73433829027371 96.67025291283417 l 39.961585408016525 -6.417468970943226 a61.473599003735984,61.473599003735984 0 0,0 0.158789545477543,1.046224707066117 l -40.06613084693337 5.7286451514850265" fill="red" stroke="none" /><path d="M 120.94382443527127 98.46500227214037 l 44.656685019415036 -3.2729413985682876 a65.77646326276462,65.77646326276462 0 0,0 0.07304134519559267,1.129917281311217 l -44.706406955615044 2.503765053004035" fill="red" stroke="none" /><path d="M 120.96714384426684 98.82574320788733 l 46.108568380816976 -2.582292562015805 a67.18082191780823,67.18082191780823 0 0,0 0.05472483137722545,1.155154697259938 l -46.146186820427694 1.7882267581328672" fill="red" stroke="none" /><path d="M 120.98425023603335 99.18683210126433 l 38.74551475710932 -1.5014407694380458 a59.77459526774595,59.77459526774595 0 0,0 0.03099257414597003,1.0284926521821425 l -38.76561902571093 0.8342779698309042" fill="red" stroke="none" /><line stroke="#e1ed5e" stroke-width="0.3" x1="184.98032266829074" x2="189.97916517819016" y1="98.17113171792111" y2="98.06355123074" /><path d="M 185.9800911702706 98.14961562048488 a86.0,86.0 0 0,1 -9.607161424134198,41.387399972396054" fill="none" id="id16" stroke="none" /><text fill="#e1ed5e" style="font-size:6.75px; font-family:Arial;" text-anchor="middle"><textPath startOffset="21.466115282336823" xlink:href="#id16">April</textPath></text><path d="M 120.99513854157772 99.54816195383933 l 45.6646442102327 -0.9827524394617821 a66.67521793275219,66.67521793275219 0 0,0 0.014817750834138995,1.1476511318384164 l -45.67479496818456 0.19656504956290294" fill="red" stroke="none" /><path d="M 120.99824983174949 100.27111621757518 l 45.70976426637374 0.5901757762408764 a66.71357409713573,66.71357409713573 0 0,0 -0.024709237970792004,1.1481411954164595 l -45.69283296571794 -1.3769067874474505" fill="red" stroke="none" /><path d="M 120.95626037817324 101.35467743843564 l 53.518061217334825 3.4595728804482806 a74.62976338729764,74.62976338729764 0 0,0 -0.09390357975041044,1.2812397389528851 l -53.450581078920074 -4.380285755897936" fill="red" stroke="none" /><path d="M 120.81339534386255 102.79330883721812 l 45.32723785492158 6.083244563178659 a66.73362391033623,66.73362391033623 0 0,0 -0.16259472364159888,1.137187118450964 l -45.21580908026338 -6.862577153610032" fill="red" stroke="none" /><path d="M 120.70491114924044 103.5080841355445 l 44.225483939199506 7.49323276374337 a65.85579078455791,65.85579078455791 0 0,0 -0.1989897246593462,1.1160400521838227 l -44.08994777220097 -8.253391566660412" fill="red" stroke="none" /><path d="M 120.64145759157962 103.86396538481128 l 44.98621031436751 8.421166900513152 a66.7676214196762,66.7676214196762 0 0,0 -0.22119180462963606,1.1278522464263991 l -44.83458857676221 -9.194282874007497" fill="red" stroke="none" /><path d="M 120.5718875245553 104.21870165774334 l 48.85161468367414 10.018059237561864 a70.86824408468244,70.86824408468244 0 0,0 -0.2553482767894427,1.1929021393417651 l -48.671932368160256 -10.857475196319799" fill="red" stroke="none" /><path d="M 120.49622156327973 104.57218783832717 l 44.95725809064761 10.028825461901514 a67.06226650062266,67.06226650062266 0 0,0 -0.26103008148454004,1.1245107592434578 l -44.77796744323252 -10.801204878493536" fill="red" stroke="none" /><path d="M 120.13307415673323 105.97154293290107 l 45.01484600373454 13.351566851470228 a67.95317559153176,67.95317559153176 0 0,0 -0.3422679381320857,1.118551425306021 l -44.77835129309632 -14.124445249328305" fill="red" stroke="none" /><path d="M 120.02730092923936 106.31721596034902 l 43.4872596225646 13.717195918219042 a66.59937733499376,66.59937733499376 0 0,0 -0.35426983456246347,1.0903304375507021 l -43.24469753698589 -14.46372525574754" fill="red" stroke="none" /><path d="M 119.9155931802556 106.66101706037122 l 32.006317558057106 10.704909734008796 a54.74906600249066,54.74906600249066 0 0,0 -0.3066186742470067,0.8911773923817554 l -31.817308052866867 -11.254259829479853" fill="red" stroke="none" /><line stroke="#e1ed5e" stroke-width="0.3" x1="174.80103733775053" x2="179.2010983576182" y1="140.37084112569926" y2="142.7455964860345" /><path d="M 175.68104954172406 140.8457921977663 a86.0,86.0 0 0,1 -30.038265399797805,32.042727171017184" fill="none" id="id17" stroke="none" /><text fill="#e1ed5e" style="font-size:6.75px; font-family:Arial;" text-anchor="middle"><textPath startOffset="22.206326154141568" xlink:href="#id17">May</textPath></text><path d="M 118.12598468904814 110.60418214915192 l 40.09913250450156 23.459056839964873 a67.45716064757161,67.45716064757161 0 0,0 -0.5949693439536773,0.997202843039087 l -39.68938228484966 -24.145821776890067" fill="red" stroke="none" /><path d="M 117.35343817320211 111.8261652097733 l 36.634555904373855 24.966021498888775 a65.33275217932753,65.33275217932753 0 0,0 -0.6413159174689308,0.9238634107153023 l -36.19937907974279 -25.592926171791095" fill="red" stroke="none" /><path d="M 117.14729908036423 112.12312394758627 l 37.393070261053325 26.43686468819218 a66.79464508094645,66.79464508094645 0 0,0 -0.6718275620093062,0.9331097239318379 l -36.93246290666841 -27.07660801757515" fill="red" stroke="none" /><path d="M 116.71984013943494 112.70617746262583 l 36.93356468160607 28.067518783568726 a67.38829389788293,67.38829389788293 0 0,0 -0.7098014861674735,0.917514103074683 l -36.44495637822053 -28.69911088075666" fill="red" stroke="none" /><path d="M 114.81725581225074 114.88116024355365 l 32.7517325649949 32.8929854980799 a67.41793275217933,67.41793275217933 0 0,0 -0.8294012446310015,0.811743683693405 l -32.18068136798811 -33.45187928469588" fill="red" stroke="none" /><path d="M 114.55890576462653 115.13401014063108 l 31.427051003169126 32.66847909186205 a66.33088418430884,66.33088418430884 0 0,0 -0.8296545880186408,0.7844901974000038 l -30.86006058075968 -33.20460392600798" fill="red" stroke="none" /><path d="M 113.20401910651253 116.32954008644616 l 29.194091725619632 36.10461990968792 a67.43100871731009,67.43100871731009 0 0,0 -0.908849608378362,0.7220450954737024 l -28.56828462452392 -36.60179891916675" fill="red" stroke="none" /><path d="M 112.92097659922987 116.55440617244103 l 28.816620538407005 36.919967871339445 a67.83462017434621,67.83462017434621 0 0,0 -0.9266573210274095,0.7105213190685458 l -28.1768344888861 -37.41052853223536" fill="red" stroke="none" /><path d="M 111.7513745106137 117.40417183066458 l 26.07253901383485 38.6142870903014 a67.5922789539228,67.5922789539228 0 0,0 -0.9698697056496748,0.6427767555260006 l -25.40399460944521 -39.05736186691872" fill="red" stroke="none" /><line stroke="#e1ed5e" stroke-width="0.3" x1="143.8653032363475" x2="146.44561519142675" y1="172.8068346515853" y2="177.08958963109032" /><path d="M 144.38136562736335 173.6633856474863 a86.0,86.0 0 0,1 -40.68145358897372,12.25698825130547" fill="none" id="id18" stroke="none" /><text fill="#e1ed5e" style="font-size:6.75px; font-family:Arial;" text-anchor="middle"><textPath startOffset="21.466115282336833" xlink:href="#id18">June</textPath></text><line stroke="#e1ed5e" stroke-width="0.3" x1="102.19456741930631" x2="102.32365962044197" y1="184.97166512339345" y2="189.96999836594603" /><path d="M 102.22038585953345 185.97133177190398 a86.0,86.0 0 0,1 -42.740103519485714,-10.115201625700543" fill="none" id="id19" stroke="none" /><text fill="#e1ed5e" style="font-size:6.75px; font-family:Arial;" text-anchor="middle"><textPath startOffset="22.20632615414155" xlink:href="#id19">July</textPath></text><line stroke="#e1ed5e" stroke-width="0.3" x1="58.666819895761336" x2="56.23545636021788" y1="174.27360380694188" y2="178.64263932499728" /><path d="M 58.180547188652646 175.14741091055294 a86.0,86.0 0 0,1 -31.652253787137756,-30.449443065178592" fill="none" id="id20" stroke="none" /><text fill="#e1ed5e" style="font-size:6.75px; font-family:Arial;" text-anchor="middle"><textPath startOffset="22.20632615414155" xlink:href="#id20">August</textPath></text><line stroke="#e1ed5e" stroke-width="0.3" x1="26.63291911575756" x2="22.317208475507996" y1="142.92168965132927" y2="145.44649492493687" /><path d="M 25.769776987707644 143.4266507060508 a86.0,86.0 0 0,1 -11.730757126820373,-40.83630448921669" fill="none" id="id21" stroke="none" /><text fill="#e1ed5e" style="font-size:6.75px; font-family:Arial;" text-anchor="middle"><textPath startOffset="21.46611528233685" xlink:href="#id21">September</textPath></text><line stroke="#e1ed5e" stroke-width="0.3" x1="15.007084014347285" x2="10.007500721073583" y1="101.09737516637583" y2="101.16192664675087" /><path d="M 14.007167355692545 101.11028546245083 a86.0,86.0 0 0,1 10.666146001902534,-42.60595125391555" fill="none" id="id22" stroke="none" /><text fill="#e1ed5e" style="font-size:6.75px; font-family:Arial;" text-anchor="middle"><textPath startOffset="22.20632615414155" xlink:href="#id22">October</textPath></text><line stroke="#e1ed5e" stroke-width="0.3" x1="26.266209847984243" x2="21.928928074336255" y1="57.711370442889674" y2="55.22380399835377" /><path d="M 25.398753493254645 57.213857153982495 a86.0,86.0 0 0,1 29.58750427330803,-30.492523968695096" fill="none" id="id23" stroke="none" /><text fill="#e1ed5e" style="font-size:6.75px; font-family:Arial;" text-anchor="middle"><textPath startOffset="21.46611528233685" xlink:href="#id23">November</textPath></text><line stroke="#e1ed5e" stroke-width="0.3" x1="56.762969772571076" x2="54.21961505331055" y1="26.818313649435495" y2="22.513508569990535" /><path d="M 56.25429882871897 25.957352633546506 a86.0,86.0 0 0,1 42.265352541879196,-11.944610805530505" fill="none" id="id24" stroke="none" /><text fill="#e1ed5e" style="font-size:6.75px; font-family:Arial;" text-anchor="middle"><textPath startOffset="22.20632615414155" xlink:href="#id24">December</textPath></text></svg>